<svg xmlns="http://www.w3.org/2000/svg" viewBox="0 0 1024 1024" role="img" aria-label="ScribeStudio icon">
  <defs>
    <linearGradient id="base" x1="188" y1="128" x2="836" y2="896" gradientUnits="userSpaceOnUse">
      <stop offset="0" stop-color="#20252b"/>
      <stop offset="0.52" stop-color="#11161c"/>
      <stop offset="1" stop-color="#080b10"/>
    </linearGradient>
    <linearGradient id="paper" x1="262" y1="282" x2="762" y2="748" gradientUnits="userSpaceOnUse">
      <stop offset="0" stop-color="#fff7e8"/>
      <stop offset="1" stop-color="#e7d0aa"/>
    </linearGradient>
    <linearGradient id="accent" x1="304" y1="620" x2="720" y2="620" gradientUnits="userSpaceOnUse">
      <stop offset="0" stop-color="#f4ba67"/>
      <stop offset="1" stop-color="#b86b2b"/>
    </linearGradient>
    <filter id="shadow" x="-20%" y="-20%" width="140%" height="140%">
      <feDropShadow dx="0" dy="28" stdDeviation="34" flood-color="#000000" flood-opacity="0.35"/>
    </filter>
  </defs>

  <rect width="1024" height="1024" rx="226" fill="url(#base)"/>
  <path d="M188 714c94 122 200 182 322 182 154 0 282-86 350-220 26-50 36-100 36-164 0-220-168-384-384-384-160 0-296 84-364 216" fill="none" stroke="#2b333d" stroke-width="74" stroke-linecap="round" opacity="0.58"/>

  <g filter="url(#shadow)">
    <path d="M274 286c0-34 28-62 62-62h352c34 0 62 28 62 62v452c0 34-28 62-62 62H336c-34 0-62-28-62-62V286Z" fill="url(#paper)"/>
    <path d="M354 338h316M354 430h248M354 522h316" fill="none" stroke="#8f6f4b" stroke-width="30" stroke-linecap="round" opacity="0.42"/>
    <path d="M326 646h372c26 0 48 22 48 48v44c0 26-22 48-48 48H326c-26 0-48-22-48-48v-44c0-26 22-48 48-48Z" fill="#10161d"/>
    <path d="M362 716h300" fill="none" stroke="url(#accent)" stroke-width="28" stroke-linecap="round"/>
  </g>

  <path d="M380 622c34-46 78-68 132-68 70 0 118 36 118 88 0 48-38 78-114 92-56 10-82 24-82 50 0 24 26 42 70 42 50 0 92-18 126-54" fill="none" stroke="#fff2d8" stroke-width="54" stroke-linecap="round" stroke-linejoin="round"/>
  <path d="M356 716c16 0 16-48 32-48s16 48 32 48 16-48 32-48 16 48 32 48 16-48 32-48 16 48 32 48 16-48 32-48 16 48 32 48 16-48 32-48 16 48 32 48" fill="none" stroke="#f4ba67" stroke-width="18" stroke-linecap="round" opacity="0.95"/>
</svg>
